<?xml version="1.0" standalone="no"?>
<!DOCTYPE svg PUBLIC "-//W3C//DTD SVG 20010904//EN"
 "http://www.w3.org/TR/2001/REC-SVG-20010904/DTD/svg10.dtd">
<svg version="1.0" xmlns="http://www.w3.org/2000/svg"
 width="1280.000000pt" height="561.000000pt" viewBox="0 0 1280.000000 561.000000"
 preserveAspectRatio="xMidYMid meet">
<metadata>
Created by potrace 1.15, written by Peter Selinger 2001-2017
</metadata>
<g transform="translate(0.000000,561.000000) scale(0.100000,-0.100000)"
fill="#000000" stroke="none">
<path d="M3044 5465 c-11 -27 4 -44 48 -55 132 -34 207 -85 227 -155 8 -29 11
-726 11 -2478 0 -2678 5 -2486 -60 -2526 -18 -10 -62 -27 -99 -36 -36 -9 -74
-24 -83 -32 -24 -21 -23 -50 1 -63 27 -14 1662 -14 1712 0 120 33 207 168 245
378 24 132 30 446 11 556 -18 103 -40 140 -85 144 -46 5 -59 -24 -66 -148 -7
-134 -27 -215 -76 -315 -104 -211 -313 -370 -552 -420 -96 -21 -240 -20 -284
1 -69 33 -64 -176 -64 2481 0 1531 4 2420 10 2442 13 47 48 96 84 117 16 9 68
29 115 44 77 23 86 29 86 51 l0 24 -588 3 c-516 2 -588 0 -593 -13z"/>
<path d="M537 5463 c-30 -5 -50 -33 -41 -57 3 -9 25 -21 48 -26 115 -30 148
-43 187 -73 24 -18 54 -54 68 -82 l26 -49 3 -1083 2 -1083 -172 0 c-95 0 -190
5 -211 11 -20 5 -66 30 -102 54 -36 25 -72 45 -79 45 -33 0 -31 -126 3 -205
22 -49 69 -91 119 -105 57 -16 173 -12 280 9 53 11 112 22 130 25 l32 5 0
-1219 c0 -864 -3 -1234 -11 -1272 -19 -89 -90 -139 -231 -163 -56 -9 -64 -66
-11 -86 14 -5 279 -9 619 -9 581 0 594 0 614 20 42 42 23 63 -77 84 -39 8 -89
24 -111 35 -50 26 -105 89 -120 140 -9 28 -12 362 -12 1259 l0 1221 83 -5
c272 -20 412 -84 446 -207 18 -63 5 -112 -70 -256 -32 -63 -59 -125 -59 -139
0 -23 3 -24 35 -19 103 17 511 370 598 517 96 164 71 235 -99 281 -70 20 -105
22 -309 22 -126 0 -319 -4 -428 -9 l-197 -9 0 1116 c0 1105 0 1117 20 1142 51
65 247 57 461 -18 228 -79 416 -259 543 -519 47 -95 85 -140 115 -134 34 7 40
65 40 388 1 308 0 317 -21 360 -18 35 -35 51 -73 70 l-50 25 -980 1 c-539 1
-992 -1 -1008 -3z"/>
<path d="M5122 5458 c-35 -35 -7 -52 124 -73 103 -16 192 -50 232 -88 32 -29
59 -83 79 -159 16 -58 18 -240 23 -2398 l5 -2335 28 -57 c61 -125 202 -200
427 -228 103 -13 533 -10 546 3 19 18 -18 43 -102 69 -112 34 -146 53 -194
105 -44 46 -69 93 -96 173 -18 53 -19 148 -24 2360 -5 2212 -6 2307 -24 2360
-53 158 -155 243 -326 271 -86 14 -683 12 -698 -3z"/>
<path d="M6712 5461 c-8 -4 -12 -19 -10 -32 3 -22 9 -25 88 -32 149 -14 224
-67 249 -177 7 -30 11 -849 11 -2464 l0 -2420 21 -44 c38 -78 141 -134 293
-161 33 -6 182 -11 332 -11 268 0 274 0 285 21 16 31 -3 45 -96 69 -44 11 -97
32 -118 46 -53 35 -93 102 -106 178 -8 43 -11 460 -11 1340 l0 1277 24 24 c31
31 79 39 180 32 201 -15 268 -72 365 -309 22 -53 164 -492 315 -975 152 -483
287 -907 300 -943 105 -281 225 -479 358 -589 70 -58 211 -131 303 -156 44
-13 117 -19 271 -22 222 -5 254 -1 254 37 0 15 -13 23 -57 35 -153 42 -215 77
-298 166 -65 71 -118 176 -168 334 -20 61 -155 511 -301 1002 -146 490 -276
920 -289 955 -103 273 -261 438 -490 512 -83 27 -254 56 -333 56 l-49 1 79 34
c660 290 956 601 1068 1121 19 91 23 138 23 279 -1 156 -3 176 -27 247 -87
260 -308 452 -613 533 -162 43 -215 45 -1045 45 -437 0 -801 -4 -808 -9z
m1529 -111 c220 -67 353 -292 390 -653 23 -231 -24 -560 -112 -785 -122 -310
-301 -519 -523 -611 -81 -34 -233 -64 -299 -59 l-42 3 -3 979 c-2 968 -2 980
18 1022 32 64 105 106 224 125 83 13 274 2 347 -21z"/>
<path d="M9944 5459 c-54 -16 -121 -84 -158 -162 -35 -76 -36 -80 -91 -392
-19 -110 -44 -252 -56 -316 -12 -64 -19 -124 -16 -133 8 -21 50 -21 69 2 9 9
34 64 57 122 159 408 516 725 854 758 104 11 136 0 165 -58 l22 -44 0 -2433
c0 -2671 5 -2470 -58 -2536 -37 -40 -74 -57 -167 -81 -73 -19 -80 -23 -80 -46
l0 -25 603 -3 c551 -2 603 -1 609 14 11 30 -13 49 -93 70 -133 34 -171 66
-200 161 -20 65 -19 4859 0 4912 21 59 55 76 144 74 140 -3 284 -51 419 -139
81 -54 259 -229 325 -322 61 -83 135 -224 174 -330 14 -37 32 -77 40 -89 16
-25 61 -31 70 -10 6 17 -44 320 -97 580 -53 267 -91 348 -188 405 l-46 27
-1135 2 c-655 1 -1148 -2 -1166 -8z"/>
</g>
</svg>
