<?xml version="1.0" encoding="utf-8"?>
<!-- Generator: Adobe Illustrator 19.1.0, SVG Export Plug-In . SVG Version: 6.00 Build 0)  -->
<!DOCTYPE svg PUBLIC "-//W3C//DTD SVG 1.1//EN" "http://www.w3.org/Graphics/SVG/1.1/DTD/svg11.dtd">
<svg version="1.1" id="Layer_1" xmlns="http://www.w3.org/2000/svg" xmlns:xlink="http://www.w3.org/1999/xlink" x="0px" y="0px"
	 viewBox="-219 56 520 450" style="enable-background:new -219 56 520 450;" xml:space="preserve">
<style type="text/css">
	.st0{fill:#000000;}
</style>
<g>
	<g>
		<path class="st0" d="M-111.4,149c-0.3,1.5-0.5,2.5-1,2.5c-1.3,0-2.5-1.3-3.5-3.8c-4.8-10.5-11.5-17.7-20.3-21.7
			c-5.5-2.3-10.8-3.5-15.5-3.5c-5,0-7.3,1.3-7.3,3.8v90.6c2.5-0.3,7-0.3,13.3-0.5c5.8-0.5,10-0.5,13.3-0.5c11.5,0,17.5,2,17.5,5.8
			c0,5-6,12.3-17.8,21.5c-4.8,3.8-7.5,5.5-8.5,5.5c-0.3,0-0.5,0-0.8-0.3v-0.5c0-0.5,1-2.5,2.8-5.8c2-3.3,2.8-6,2.8-7.8
			c0-7.5-7.5-11-22.8-11v96.8c0,7,3.5,10.8,10.5,11.8c2.3,0.3,3.3,0.8,3.3,1.3c0,1.3-0.8,2-2.5,2h-45.3c-2.3,0-3.5-0.5-3.5-1.8
			c0-0.8,0.8-1.3,2-1.3c4-0.5,6.8-2,8.3-4c0.8-1.5,1.3-3.8,1.3-6.8v-97.6c-1.5,0-3.8,0.3-6.8,1c-3,0.8-5.5,1-7,1
			c-6.8,0-10-3.3-10-10c0-1.8,0.3-2.5,1-2.5c3,2.8,5.8,4.3,8,4.5c1.3,0.3,3.3,0.3,6,0.3c3.3,0,6.3,0,9-0.3v-84c0-3.8-1-6.8-2.8-8.8
			s-4.8-3.3-9-4c-1.3-0.3-2-0.8-2-1.3c0-1,1-1.5,3-1.5h75.8c5.8,0,8.8,2.5,8.8,7.8v23h-0.3V149z"/>
		<path class="st0" d="M-27.9,334.9h-62.8c-2.3,0-3.3-0.5-3.3-1.5c0-0.8,1.3-1.5,3.8-2s4.3-1.3,5.3-2.3s1.5-3,1.5-5.8V130
			c0-2-0.3-3.5-0.8-5c-0.5-1.3-1.5-2.3-2.8-3c-2.3-1.3-4.3-2-5.8-2.3c-1.8-0.3-2.5-0.8-2.5-1.3c0-0.8,0.8-1,2.3-1h42.5
			c1.8,0,2.8,0.3,2.8,1c0,0.5-1,1-3.5,1.5c-2.3,0.5-4,1.3-5.3,2c-2.3,1.8-3.5,4.5-3.5,8.3v192.9c0,3.3,2.5,5,7.5,5
			c9,0,16.8-3,23.3-9s9.8-13.8,9.8-22.8c0-3.3,0.5-5,1.8-5c2.8,0,4,4.8,4,14.3C-13.6,325.2-18.3,334.9-27.9,334.9z"/>
		<path class="st0" d="M45,334.9H34.5c-17.8,0-26.8-5.5-26.8-16.3V139.7c0-7-1-11.8-3-14.5c-2-2.8-6.3-4.3-13-5
			c-1.8-0.3-2.8-0.8-2.8-1.3c0.3-0.8,0.8-1,1.8-1H12c12.8,0,19,6.3,19,19v174.7c0,11.8,3.8,18.3,11.5,20.3c3.5,1,5.5,1.5,5.5,2.3
			C47.7,334.4,46.7,334.9,45,334.9z"/>
		<path class="st0" d="M290.2,159c-1,0-1.8-1.3-2.5-3.3c-2.8-7.8-6.5-14.5-11.8-19.8c-8.3-9.3-17.5-13.8-27.5-13.8
			c-3.5,0-5.3,2.3-5.3,6.8v192.9c0,3.3,1,5.8,2.8,7.8c1,1,3,2,5.8,2.5s4,1,4,1.8s-1,1-2.8,1h-44.8c-1,0-1.3-0.3-1.3-1
			c0-0.5,1.3-1,4-1.5c5.8-1,8.8-4.5,8.8-9.8V129.7c0-5-1.8-7.5-5.3-7.5c-9.5,0-18.8,4.8-27.3,14c-5,5.3-8.8,11.8-11.5,19.5
			c-0.8,2.3-1.5,3.3-2.3,3.3c-1,0-1.3-0.3-1.3-1c0-0.3,0.3-1.3,0.5-2.5c2-10.5,3.5-18.5,4.3-24.3c0.3-1.3,0.5-2.5,0.8-3.5
			c2.3-6.5,5.8-9.8,10.5-9.8h86.8c4,0,7.3,2.3,9.5,7c0.5,1.3,1,2.5,1.3,3.8c2.5,11.5,4,20.5,5,27c0.3,1.3,0.3,1.8,0.3,2.3
			C291.2,158.5,290.7,159,290.2,159z"/>
		<path class="st0" d="M185.1,332.4c-6.3-1-11-4.3-14.3-9.3c-2-3-4-8.5-6.3-16.3L143.7,237c-3-10-7.5-17.3-14-21.5
			c-5.3-3.8-13.5-5.8-24.5-6c6.5-2.5,15.3-6.5,25.3-13c5.5-3.8,10.3-8,14.3-13.8c5.5-7.8,8-15.8,9.3-24.8c2-12.8-1.3-22.8-10-30.3
			c-8-6.5-18.5-9.8-31.8-9.8h-56c-2,0-2.8,0.3-2.8,1c-0.3,1,0.8,1.3,2.5,1.3c7.8,0,11.5,3.5,11.5,10.3v192.9c0,6,4.5,9.5,13.5,10.8
			c2.3,0.5,5,0.5,8.3,0.5h12.5c2,0,3-0.5,3-1.5c0-0.5-1-1-3-1.3c-7-1-10.5-5.3-10.5-12.5v-103c0-1,0.5-2,1.3-2.5
			c1.5-0.8,4.3-1,7.3-0.8c3.5,0.3,6.3,0.8,8.3,2c3.3,2,6.5,8.3,9.8,18.8l19.3,61.6c4.5,14.8,9.8,25,15.5,30.5c6.5,6.3,14.8,9.3,25,9
			c2,0,4,0,6,0c2.5,0,3.8-0.5,3.8-1.5C187.6,333.2,186.8,332.9,185.1,332.4z M98.5,208.1c-2.5,0.3-4.5,0.5-6,0.3c-1,0-1.3-0.3-1.3-1
			v-77.9c0-6.3,6.3-9.3,19-8.5c9.5,0.3,16,5.8,19.3,15.8c2.5,7.8,3.3,16.5,2,27c-1.3,10.8-4.5,20-9.5,28
			C115.8,201.6,107.8,206.8,98.5,208.1z"/>
	</g>

</g>
</svg>
