<svg xmlns="http://www.w3.org/2000/svg" width="994" height="406.183" viewBox="0 0 994 406.183">
  <defs>
    <style>
      .cls-1 {
        fill: #fff;
      }
    </style>
  </defs>
  <path id="Path_1" data-name="Path 1" class="cls-1" d="M745.465,0V85.577h5.442v-.007c0-.015,2.4-17.965,6.518-31.33h-.007c9.653-28.679,23.4-41.254,33.842-46.747h0a29.813,29.813,0,0,1,4.409-1.868v.007a45.349,45.349,0,0,1,14.142-2.395c7.067.227,33.235,3.31,33.235,36.625h0V366.313h-.015c0,33.725-26.841,36.472-33.506,36.633,0,0-13.461-.059-15.153-.117a52.989,52.989,0,0,1-13.747-2.3v.007a30.475,30.475,0,0,1-4.409-1.867h0c-5.91-3.105-12.868-8.481-19.554-17.745-6.218-10.1-9.843-22.952-12.707-33.96-12.919-49.7-17.21-102.809-35.183-150.889-4.716-12.611-10.033-24.651-18.858-34.985-12.963-15.2-35.805-17.555-54.759-17.914,5.317.1,17.789-3.537,22.491-5.852,24.161-11.872,49.991-25.926,61.76-51.529,11.227-24.424,10.3-49.31-11.886-67.473-1.626-1.326-3.318-2.571-5.053-3.75C688.678,5.178,670.5.293,649.43,0H405.422V3.237l1.487-.007c6.577.161,32.817,2.864,33.469,35.4.007.366.022.718.022,1.091V366.416c-.059,33.623-15.79,36.362-22.44,36.523h-2.768c-6.635-.161-22.191-2.893-22.432-36.186V320.592H387.12c0,.059-2.527,18.023-6.137,30.21-9.667,29.492-23.641,42.309-34.223,47.875h0a29.81,29.81,0,0,1-4.409,1.868v-.007c-5.822,2.036-13.615,2.358-16.9,2.4h-3.779c-6.635-.161-33.286-2.893-33.491-36.245V39.863h0c0-33.725,26.841-36.472,33.506-36.633l1.487.007V0H0V3.237L1.487,3.23c6.65.161,33.425,2.9,33.5,36.494V161.53C3.764,161.5,5.537,138.2,5.515,129.511H.051V164.5l34.934.278V366.489c-.1,33.564-26.848,36.3-33.5,36.457L0,402.939v3.237H118.863v-3.237l-1.487.007c-6.65-.161-33.4-2.9-33.5-36.464V164.767h8.554c33.725,0,34.26,26.841,34.421,33.506l-.007,1.487h5.449V161.53H83.878V39.863h0c0-33.725,26.841-36.472,33.506-36.633h6.987c3.274.044,11.066.366,16.9,2.4V5.625a30.481,30.481,0,0,1,4.409,1.868h0C156.147,13,169.938,25.625,179.59,54.459c4.079,13.344,6.437,31.118,6.437,31.118h5.441V39.416c.242-33.293,15.8-36.025,22.432-36.186h2.944c6.65.161,22.366,2.9,22.44,36.494V366.306h-.1c0,33.725-26.841,36.472-33.506,36.633l-1.487-.007v3.237H524.27v-3.237l-1.487.007c-6.657-.161-33.447-2.9-33.5-36.53V39.863h0c0-33.725,26.841-36.472,33.506-36.633h2.944c6.65.161,33.425,2.9,33.5,36.494V370.232c.352,32.143,25.384,35.622,32.876,35.944l51,.007v-3.237l-1.487.007c-6.635-.161-33.256-2.893-33.491-36.193v-217h0a5.119,5.119,0,0,1,1.963-4.211.8.8,0,0,1,.081-.059.007.007,0,0,0,.007-.007,5.849,5.849,0,0,1,.813-.476c3.2-1.34,8.43-1.055,14.04-.8,6.452.447,11.593,1.553,15.357,3.618,19.393,10.663,26.175,39.43,30.144,59.761,3.479,17.848,3.23,35.512,3.991,53.616,1.384,33.088,2.483,65.7,18.177,95.61,6.913,13.168,15.9,25.457,27.881,34.443a80.957,80.957,0,0,0,12.055,7.485,73.758,73.758,0,0,0,10.041,4.189c7.763,2.563,15.922,3.054,24.065,3.23l160.168.015v-3.237l-1.487.007c-6.613-.161-33.081-2.878-33.484-35.886V39.863h0c0-33.337,26.211-36.4,33.249-36.625a45.279,45.279,0,0,1,14.179,2.395V5.625a30.482,30.482,0,0,1,4.409,1.868h0C954.255,13,971.817,25.618,982.04,54.444c4.087,13.351,6.518,31.133,6.518,31.133H994V0ZM621.8,140.328a64.043,64.043,0,0,1-11.154.491c-1.677-.088-2.512-.659-2.512-2.021h0V39.863h0c0-33.725,26.841-36.472,33.506-36.633h2.849c4.3.1,17.005,1.289,25.472,11.191,3.01,3.64,7.412,10.89,7.961,22.689.044.893.066,1.8.066,2.739,0,65.4-23.487,87.657-40.075,95.91l-.1.015a90.9,90.9,0,0,1-10,3.5Z"/>
</svg>
