<svg class="no-invert" xmlns="http://www.w3.org/2000/svg" xmlns:xlink="http://www.w3.org/1999/xlink" width="696.68" height="696.68" viewBox="0 0 696.68 696.68">
  <defs>
    <radialGradient id="radial-gradient" cx="0.5" cy="0.5" r="0.5" gradientUnits="objectBoundingBox">
      <stop offset="0" stop-color="#f0f" />
      <stop offset="0.592" stop-color="#f0f" />
      <stop offset="0.709" stop-color="#f709b8" />
      <stop offset="0.85" stop-color="#ef1369" />
      <stop offset="0.951" stop-color="#e91a37" />
      <stop offset="1" stop-color="#e71c24" />
    </radialGradient>
  </defs>
  <g id="Group_255" data-name="Group 255" transform="translate(-295.828 -463.66)">
    <g id="Group_203" data-name="Group 203" transform="translate(-2905 16001)">
      <circle id="Ellipse_4" data-name="Ellipse 4" cx="348.34" cy="348.34" r="348.34"
        transform="translate(3200.828 -15537.34)" fill="url(#radial-gradient)" />
    </g>
    <g id="Group_254" data-name="Group 254" transform="translate(-1866.16 -773.66)">
      <g id="Group_252" data-name="Group 252">
        <path id="Path_720" data-name="Path 720"
          d="M2266.405,1536.106c-.37,1.357-.421,2.316-.93,4.189l-.229.841a13.829,13.829,0,0,0-6.019-5.177c-2.01-1.031-4.8-2.274-6.906-3.195l-16.542-7.064a63.4,63.4,0,0,0-8.415-3.26,10.976,10.976,0,0,0-5.968.252l.211-.775c.545-2,1.038-3.05,1.424-4.472,1.073-3.941,1.557-7,2.155-9.2,3.091-11.375,13.906-18.222,26.185-14.884,14.608,3.971,22.508,17.292,18.468,32.158C2268.644,1529.912,2267.16,1533.327,2266.405,1536.106Zm-16.474-37.446c-10.341-2.81-19.378,1.327-22.083,11.28-1.177,4.331-1.059,5.682,1.333,7.1a66.29,66.29,0,0,0,6.34,2.974l18.783,8.019a67.289,67.289,0,0,0,7.3,2.748c2.521.685,3.753-.783,5.123-5.825C2270.209,1512.153,2262.663,1502.12,2249.931,1498.66Z"
          fill="#fff" />
        <path id="Path_721" data-name="Path 721"
          d="M2257.794,1483.684c-2.136-4.195-3.148-8.126-1.96-10.9a5.369,5.369,0,0,1,3.887-3.29l.59-4.775c3.113,2.937,6,5.558,9.287,8.425,2.875,2.472,5.926,4.873,7.659,6.272a14.41,14.41,0,0,0,3,2.014c.431.184.694.08.853-.29.449-1.047.088-3.606-3.464-9.429,5.751,3.923,8.028,10,6.735,13.016-.659,1.539-2.031,2.191-3.878,1.4a29.79,29.79,0,0,1-6.2-4.407c5.417,7.423,6.657,11.672,5.522,14.318-1.32,3.079-4.459,3.773-7.845,2.321C2266.931,1496.2,2260.916,1489.832,2257.794,1483.684Zm18.617,9.438c.9-2.093-1.063-8.4-7.949-15.285a51.438,51.438,0,0,0-5.091-4.441c-2.225-.08-3.958.562-4.564,1.977-.687,1.6-.4,3.984,1.406,7.09a28.019,28.019,0,0,0,12.285,11.459C2274.468,1494.767,2275.857,1494.415,2276.411,1493.122Z"
          fill="#fff" />
        <path id="Path_722" data-name="Path 722"
          d="M2272.674,1448.854c-1,1.821,1.246,7.628,13.431,17.729l4.828,4.016-2.9,3.758c-3.1-2.841-6.263-5.715-9.664-8.568l-7.325-6.145a17.6,17.6,0,0,0-2.511-1.832.923.923,0,0,0-1.3.281c-.514.941.152,3.214,2.273,7.428-5.639-4.764-6.227-9.131-4.941-11.482.74-1.351,2.611-1.7,4.609-.609a58.676,58.676,0,0,1,5.047,3.753c-5.247-6.458-6.12-9.607-4.578-12.428a6.859,6.859,0,0,1,2.313-2.551,7.625,7.625,0,0,1,1.71.782,8.776,8.776,0,0,1,4.392,5.228C2274.791,1447.492,2273.316,1447.679,2272.674,1448.854Z"
          fill="#fff" />
        <path id="Path_723" data-name="Path 723"
          d="M2287.956,1446.841a21.709,21.709,0,0,0,4.382,3.823c3.028,1.979,4.734,1.572,5.649.172,1.356-2.076,1.178-5.232-1.807-12.783,6,6,7.174,12.529,4.9,16-2.052,3.14-5.65,3.75-9.574,1.184-9.756-6.375-15.314-20.887-11.43-26.83,1.9-2.916,4.824-2.607,6.787-1.326C2290.341,1429.356,2292.774,1435.427,2287.956,1446.841Zm-1.519-1.714c2.783-8.422,1.186-12.346-1.336-13.994-1.122-.734-2.274-.686-2.933.324C2280.336,1434.261,2282.434,1440.111,2286.437,1445.127Z"
          fill="#fff" />
        <path id="Path_724" data-name="Path 724"
          d="M2302.754,1409.431c-.7-4.657-.419-8.705,1.583-10.959a5.372,5.372,0,0,1,4.728-1.892l2.068-4.344c2.025,3.771,3.934,7.169,6.147,10.928,1.948,3.255,4.084,6.5,5.285,8.371a14.437,14.437,0,0,0,2.209,2.859c.351.311.635.295.9-.006.756-.851,1.222-3.393-.307-10.038,4.216,5.538,4.456,12.024,2.277,14.476-1.113,1.252-2.621,1.436-4.123.1a29.893,29.893,0,0,1-4.489-6.141c2.793,8.755,2.627,13.177.714,15.328-2.225,2.5-5.423,2.171-8.177-.276C2307.466,1424.19,2303.772,1416.248,2302.754,1409.431Zm14.68,14.837c1.512-1.7,1.645-8.3-2.71-17.014a51.427,51.427,0,0,0-3.428-5.824c-2.086-.778-3.933-.717-4.955.435-1.157,1.3-1.636,3.655-.906,7.169a28.016,28.016,0,0,0,8.033,14.755C2315.07,1425.213,2316.5,1425.318,2317.434,1424.268Z"
          fill="#fff" />
        <path id="Path_725" data-name="Path 725"
          d="M2333.1,1403.266a8.215,8.215,0,0,0,.828,1.154.667.667,0,0,0,1.041.023c.774-.741,1.361-3.807.938-10.543,3.485,7.512,2.885,13.373.612,15.551a2.813,2.813,0,0,1-4.169,0c-1.205-1.258-1.984-2.457-4.314-6.44l-14.484-24.612a35.826,35.826,0,0,0-3.953-5.58c-1.02-1.064-2.377-1.8-4.934-1.859l6.534-6.443a119.613,119.613,0,0,0,5.644,10.638Z"
          fill="#fff" />
        <path id="Path_726" data-name="Path 726"
          d="M2342.486,1401.391c-1.282-4.109-2.607-8.27-4.278-12.328l-2.609-6.218a23.231,23.231,0,0,0-2.512-5.016c-.706-.892-1.376-.876-1.8-.544-1.051.831-1.183,3.581-.4,7.917-4.146-6.543-2.593-10.843-.911-12.172,1.787-1.412,3.967-.488,5.462,1.4a14.631,14.631,0,0,1,2.1,3.631c-1.151-6.858-.522-10.6,1.684-12.343,2.155-1.7,5.057-.84,7.093,1.736.331.42.737,1.04,1.1,1.606-.692-6.709.059-9.864,2.266-11.607,2-1.579,4.786-.967,6.862,1.661.873,1.1,1.454,1.839,2.912,6.492l3.982,12.818a4.061,4.061,0,0,0,.746,1.375.862.862,0,0,0,1.087.08c.894-.706,1.722-2.9,2.5-8.721,1.908,6.518.53,11.364-1.887,13.275a2.836,2.836,0,0,1-4.1-.433c-.913-1.156-1.348-1.923-3.063-7.226l-2.836-8.772c-.9-2.871-1.449-4.319-2.28-5.369-.872-1.1-1.9-1.32-2.737-.655-2.1,1.662-2.931,7.525.89,17.653l4.583,12.172-3.988,1.869-5.552-16.1c-1.245-3.627-2.009-5.242-3.213-6.764-.789-1-1.98-1.424-2.873-.719-2.1,1.662-2.724,7.787.679,16.2l5.33,13.118Z"
          fill="#fff" />
        <path id="Path_727" data-name="Path 727"
          d="M2355.939,1336l1.445-6.179,6.179,1.445-1.445,6.179Zm12.477,21.109a14.369,14.369,0,0,0-1.4-4.413.515.515,0,0,0-.774-.229c-1.081.671-1.735,3.679-2.508,8.022-1.538-5.9-.122-11.75,2.155-13.164,1.194-.742,2.947-.332,4.007,1.375,1.13,1.82,1.775,4.891,2.37,7.753l2.8,12.767a11.765,11.765,0,0,0,.745,2.849.671.671,0,0,0,.922.216c1.025-.636,1.756-3.14,2.071-8.854,2.25,7.432.7,12.177-1.743,13.7a3,3,0,0,1-4.073-1.1c-.812-1.308-1.192-2.808-2.123-7.355Z"
          fill="#fff" />
        <path id="Path_728" data-name="Path 728"
          d="M2386.568,1360.5a2.883,2.883,0,0,0,.121,2.125c.555,1.071,1.608,1.356,4.9,1.158l7.662-.5c5.178-.344,7.728,1.954,8.991,4.393,2.774,5.351-.151,12.225-7.644,16.108-6.364,3.3-13.173,2.679-15.7-2.2-2.095-4.044-1.287-8.16,2.834-13.163a4.68,4.68,0,0,1-3.689-2.462,6.085,6.085,0,0,1,.214-5.846c-1.955-.57-3.475-2.047-4.708-4.424-3.668-7.078-.675-15.569,4.38-18.189a7.565,7.565,0,0,1,6.827-.219,52.419,52.419,0,0,0,5.019-5.016l1.5,4.352-4.43,2.222a9.265,9.265,0,0,1,1.927,2.848c3.453,6.66.521,15.121-4.535,17.741A7.968,7.968,0,0,1,2386.568,1360.5Zm3.916-17.043c-1.724-3.33-3.659-4.44-5.561-3.453-3.033,1.571-4.319,7.972-1.144,14.1,1.51,2.914,3.323,3.936,5.405,2.858C2392.632,1355.166,2393.321,1348.926,2390.484,1343.454Zm-.233,25.168c-3.171,4.36-3.188,7.387-1.678,10.3,1.82,3.51,6.682,4.157,12.034,1.384s6.251-6.863,4.8-9.657c-1.108-2.141-3.159-3.04-6.39-2.723Z"
          fill="#fff" />
        <path id="Path_729" data-name="Path 729"
          d="M2406.349,1359.226c-.347-4.181-.583-8.262-1.214-12.619l-3.6-25.28a32.641,32.641,0,0,0-1.441-6.053c-.858-2.181-2.22-3.086-4.079-4.153l8.428-3.455c.232,4.8.693,6.707,1.37,11.909l2.029,15.609c1.32-6.347,3.146-9.943,6.325-11.192,2.681-1.052,5.372.121,6.547,3.113a17.27,17.27,0,0,1,1,5.291c.3,5.35.56,9.855.99,14.793a7.068,7.068,0,0,0,.252,1.556.613.613,0,0,0,.806.4c.934-.367,2.378-2.373,4.081-8.294,1.161,7.171-2.016,12.087-4.571,13.092a2.917,2.917,0,0,1-3.8-1.6c-.514-1.309-.839-3.052-1.147-7.681l-.691-10.736a15.027,15.027,0,0,0-.809-4.072,1.934,1.934,0,0,0-2.691-1.173c-2.8,1.1-6.286,7.075-4.962,16.124l2.015,13.742Z"
          fill="#fff" />
        <path id="Path_730" data-name="Path 730"
          d="M2430.62,1320.679c-.149-2.612-.422-4.7-.592-6.672l4.385-1.937.22,7.064,5.551-2.005-.27,3.784-5.2,1.549.686,18.943a13.584,13.584,0,0,0,.316,2.7.878.878,0,0,0,1.167.63c1.347-.4,2.5-1.931,5.428-8.745.052,7.672-2.581,12.44-5.725,13.377a3.36,3.36,0,0,1-4.518-2.5,25.97,25.97,0,0,1-.7-6.57l-.7-16.634-3.98,1.186.025-2.733Z"
          fill="#fff" />
        <path id="Path_731" data-name="Path 731"
          d="M2448.674,1320.578c-.826-1.333-1.366-1.631-1.761-1.548-1.114.232-1.9,2.039-3.269,9.237-1.681-9.024.854-13.59,3.28-14.1,1.77-.37,3.434.719,5.527,4.184a66.109,66.109,0,0,1,8.29,20.025,24.786,24.786,0,0,1,.352,2.664c2.114-10.843,1.806-17.553.341-24.567a25.964,25.964,0,0,0-1.354-4.508l3.666-1.45a20.743,20.743,0,0,1,1.068,3.472c1.576,7.539,1.24,15.753-1.118,25.756a44.638,44.638,0,0,1-8.177,17.516c-3.756,4.617-7.613,6.792-11.285,7.558a7.86,7.86,0,0,1-4.588-.34,15.417,15.417,0,0,1,1.17-4.555,11.837,11.837,0,0,0,6,.526c7.08-1.48,11.834-10.822,9.655-21.246A62.02,62.02,0,0,0,2448.674,1320.578Z"
          fill="#fff" />
        <path id="Path_732" data-name="Path 732"
          d="M2489.845,1309.724c.42-2.582.606-4.677.869-6.642l4.7-.94-1.318,6.943,5.855-.753-1.084,3.636-5.411.385L2490.017,1331a13.654,13.654,0,0,0-.277,2.706.879.879,0,0,0,1,.869c1.4-.1,2.859-1.345,7.2-7.362-1.614,7.5-5.217,11.586-8.491,11.818a3.359,3.359,0,0,1-3.869-3.416,25.856,25.856,0,0,1,.74-6.567l2.928-16.391-4.142.3.616-2.663Z"
          fill="#fff" />
        <path id="Path_733" data-name="Path 733"
          d="M2499.355,1336.738c1.257-4,2.579-7.872,3.638-12.145l6.211-24.772a32.623,32.623,0,0,0,.95-6.149c.029-2.345-.891-3.7-2.21-5.388l9.111-.017c-1.6,4.534-1.891,6.473-3.229,11.547l-4.013,15.221c3.619-5.38,6.667-8.019,10.083-7.976,2.879.037,4.929,2.138,4.888,5.354a17.223,17.223,0,0,1-1.072,5.277c-1.739,5.069-3.2,9.337-4.667,14.075a7.262,7.262,0,0,0-.356,1.535.619.619,0,0,0,.595.679c1.005.011,3.1-1.3,6.91-6.142-1.631,7.078-6.428,10.434-9.174,10.4a2.918,2.918,0,0,1-2.911-2.919c.018-1.406.375-3.142,1.838-7.544l3.413-10.2a15.023,15.023,0,0,0,.788-4.076,1.934,1.934,0,0,0-2.049-2.1c-3.013-.037-8.494,4.179-10.683,13.059l-3.32,13.489Z"
          fill="#fff" />
        <path id="Path_734" data-name="Path 734"
          d="M2535.24,1317.756a14.3,14.3,0,0,0,1.551-4.362c.037-.4-.144-.619-.477-.649-1.267-.119-3.606,1.882-6.845,4.875,2.343-5.632,7-9.435,9.669-9.185,1.4.129,2.549,1.515,2.362,3.516-.2,2.133-1.54,4.968-2.8,7.608l-5.479,11.864a11.871,11.871,0,0,0-1.129,2.72.672.672,0,0,0,.6.729c1.2.112,3.3-1.441,7-5.8-2.7,7.281-6.8,10.126-9.665,9.859a2.994,2.994,0,0,1-2.581-3.335c.144-1.533.747-2.957,2.753-7.142Zm2.813-24.356,4.885-4.049,4.049,4.883-4.883,4.051Z"
          fill="#fff" />
        <path id="Path_735" data-name="Path 735"
          d="M2550.528,1318.216a14.017,14.017,0,0,0,1.067-2.941.923.923,0,0,0-.682-1.14c-1.187-.211-3.218,1.265-6.445,4.5,2.124-6.222,6.732-8.806,9.173-8.372,1.78.315,2.71,1.977,2.311,4.218a25.532,25.532,0,0,1-1.68,4.873c4.878-5.257,8.469-7.476,11.569-6.926,2.836.5,4.516,2.91,3.956,6.075a17.309,17.309,0,0,1-1.915,5.034c-2.537,4.72-4.749,8.749-6.964,13.186a5.7,5.7,0,0,0-.522,1.4.617.617,0,0,0,.476.765c.989.175,3.268-.781,7.816-4.94-2.757,6.721-8.037,9.254-10.741,8.774a2.915,2.915,0,0,1-2.4-3.351c.246-1.384.88-3.041,3.037-7.148l5.021-9.516a15.067,15.067,0,0,0,1.44-3.9,1.935,1.935,0,0,0-1.682-2.407c-2.637-.468-8.662,2.817-12.251,11.159l-5.542,12.826-4.417-1.94c1.889-3.746,3.833-7.414,5.572-11.46Z"
          fill="#fff" />
        <path id="Path_736" data-name="Path 736"
          d="M2575.59,1337.081a2.874,2.874,0,0,0-1.375,1.624c-.333,1.159.235,2.09,2.761,4.211l5.9,4.908c4,3.312,4.264,6.735,3.5,9.374-1.669,5.792-8.52,8.767-16.629,6.43-6.888-1.984-11.4-7.118-9.881-12.4,1.26-4.377,4.679-6.806,11.111-7.6a4.683,4.683,0,0,1-.983-4.325,6.083,6.083,0,0,1,4.177-4.095c-1.027-1.758-1.114-3.874-.372-6.449,2.206-7.659,10.219-11.763,15.69-10.187a7.566,7.566,0,0,1,5.1,4.537,52.419,52.419,0,0,0,7.094-.186l-1.9,4.191-4.745-1.436a9.281,9.281,0,0,1-.56,3.393c-2.076,7.209-10.025,11.331-15.5,9.754A7.981,7.981,0,0,1,2575.59,1337.081Zm-2.917,8.429c-5.3.982-7.4,3.168-8.3,6.322-1.1,3.8,1.988,7.611,7.781,9.281s9.257-.678,10.128-3.7c.668-2.317-.2-4.379-2.763-6.372Zm17.484-18.1c1.038-3.6.4-5.741-1.66-6.333-3.282-.947-8.618,2.814-10.528,9.442-.908,3.154-.3,5.143,1.956,5.792C2583.658,1337.384,2588.451,1333.328,2590.157,1327.407Z"
          fill="#fff" />
        <path id="Path_737" data-name="Path 737"
          d="M2602.528,1340.131c-.738-4.442-.564-6.957.25-9.084a7.894,7.894,0,0,1,10.417-4.547,9.583,9.583,0,0,1,5.047,3.868,13.633,13.633,0,0,1-.689,2.175,11.119,11.119,0,0,1-3.459,4.915c-.057-5.472-.715-7.875-2.905-8.714a3.362,3.362,0,0,0-4.483,2.157c-.741,1.939-.328,4.608.309,8.939.661,4.269,1.035,6.85-.066,9.727-1.7,4.442-5.866,6.146-9.681,4.686-2.5-.957-5.233-3.007-6.13-4.784a18.9,18.9,0,0,1,.794-2.636,12.592,12.592,0,0,1,3.373-4.877c-.121,5.189,0,8.607,3.069,9.78,1.939.743,3.63-.117,4.468-2.306C2603.584,1347.49,2603.335,1344.958,2602.528,1340.131Z"
          fill="#fff" />
        <path id="Path_738" data-name="Path 738"
          d="M2638.143,1345.069c4.392-1.694,8.406-2.3,11.04-.831a5.376,5.376,0,0,1,2.872,4.2l4.689,1.077c-3.242,2.794-6.144,5.4-9.334,8.373-2.754,2.606-5.455,5.4-7.024,6.974a14.3,14.3,0,0,0-2.312,2.777c-.227.409-.149.683.2.877,1,.554,3.578.458,9.734-2.478-4.492,5.318-10.771,6.96-13.639,5.365-1.463-.814-1.97-2.246-.993-4a29.768,29.768,0,0,1,5.02-5.715c-7.939,4.626-12.292,5.424-14.809,4.023-2.926-1.628-3.294-4.822-1.5-8.042C2624.755,1352.873,2631.707,1347.544,2638.143,1345.069Zm-11.3,17.551c1.99,1.108,8.464-.2,16.02-6.338a51.37,51.37,0,0,0,4.942-4.609c.307-2.2-.154-3.993-1.5-4.743-1.522-.847-3.922-.8-7.2.671a28.03,28.03,0,0,0-12.66,11.044C2625.407,1360.518,2625.613,1361.937,2626.843,1362.62Z"
          fill="#fff" />
        <path id="Path_739" data-name="Path 739"
          d="M2660.92,1360.786a14.021,14.021,0,0,0,2.219-2.2.923.923,0,0,0-.13-1.323c-.984-.7-3.449-.229-7.749,1.321,4.576-4.719,9.845-5.089,11.866-3.657,1.477,1.047,1.608,2.945.291,4.8a25.478,25.478,0,0,1-3.6,3.688c6.655-2.672,10.849-3.147,13.418-1.327,2.35,1.666,2.843,4.56.985,7.183a17.3,17.3,0,0,1-3.879,3.736c-4.31,3.184-8.029,5.885-11.926,8.95a5.729,5.729,0,0,0-1.07,1.049.615.615,0,0,0,.1.894c.821.581,3.289.689,9.175-1.131-5.361,4.9-11.216,4.938-13.456,3.351a2.918,2.918,0,0,1-.739-4.055c.813-1.146,2.093-2.374,5.8-5.167l8.6-6.462a15.087,15.087,0,0,0,2.964-2.908,1.935,1.935,0,0,0-.493-2.895c-2.186-1.549-9.036-1.15-15.842,4.863l-10.483,9.234-3.167-3.639c3.306-2.581,6.63-5.07,9.927-7.987Z"
          fill="#fff" />
        <path id="Path_740" data-name="Path 740"
          d="M2687.059,1397.612a23.245,23.245,0,0,0-4.009,2.887.667.667,0,0,0,.06,1.039c.55.491,3.336,1.091,10.44.064-6.19,3.725-12.81,4.1-15.109,2.056a2.814,2.814,0,0,1-.334-4.156c1.07-1.2,2.567-2.376,6.864-5.186-9.659,3.592-14.247,3-16.448,1.042-2.849-2.54-2.373-5.793.078-8.543,3.654-4.1,11.656-7.643,18.577-8.564,4.706-.65,8.96-.088,11.609,2.272a7.385,7.385,0,0,1,1.971,2.923l7.315-4.785a27.481,27.481,0,0,0,5.255-4.287c.981-1.1,1.478-2.362,1.464-5.064l6.939,6c-4.179,2.375-6.016,3.431-10.358,6.29Zm-14.784-4.651c1.75,1.559,8.191,2.185,19.522-3.686a38.561,38.561,0,0,0,5.032-3.23,5.054,5.054,0,0,0-1.475-3.379c-1.75-1.559-4.308-2.312-7.83-1.684-5.869,1.05-11.762,4.14-14.926,7.69C2671.172,1390.272,2670.976,1391.8,2672.275,1392.961Z"
          fill="#fff" />
        <path id="Path_741" data-name="Path 741"
          d="M2716.02,1409.877a21.772,21.772,0,0,0,2.731-1.547.923.923,0,0,0,.2-1.314c-.784-.915-3.08-.713-7.873-.132,6.444-4.111,11.04-2.76,12.61-.929,1,1.17.711,3.1-1.018,4.576a27.322,27.322,0,0,1-4.751,3.1l-17.608,9.091c-14,7.234-21.211,5.3-23.956,2.1a6.438,6.438,0,0,1-1.621-4.258,8,8,0,0,1,4.708-1.3c-.262,2.164-.153,3.835.762,4.9,1.482,1.728,4.446,2.1,14.789-3.326Zm17.907-14.815,6.327.487-.488,6.326-6.327-.487Z"
          fill="#fff" />
        <path id="Path_742" data-name="Path 742"
          d="M2711.5,1422.865a24.123,24.123,0,0,1,18.746-4.61,9.766,9.766,0,0,1,5.724,3.349c3.066,4.148,1.579,9.912-4.4,14.33-5.494,4.06-12.2,5.353-17.137,4.42a11.11,11.11,0,0,1-6.673-3.729C2704.732,1432.53,2706.111,1426.847,2711.5,1422.865Zm22.141.545c-.8-1.077-2.291-1.972-4.823-2.016-4.259-.017-10.276,2.1-15.286,5.8-3.931,2.907-4.876,5.686-3.442,7.624,1.154,1.563,2.824,2.245,5.517,2.169,3.751-.107,9.2-1.97,14.375-5.792C2734.181,1428.089,2735.031,1425.3,2733.639,1423.41Z"
          fill="#fff" />
        <path id="Path_743" data-name="Path 743"
          d="M2738.162,1441.967a14.365,14.365,0,0,0,4.4-1.438.515.515,0,0,0,.222-.776c-.681-1.073-3.694-1.7-8.043-2.438,5.89-1.589,11.747-.223,13.181,2.039.752,1.19.357,2.946-1.34,4.019-1.811,1.148-4.874,1.817-7.731,2.438l-12.741,2.913a11.946,11.946,0,0,0-2.842.768.672.672,0,0,0-.207.925c.644,1.018,3.155,1.729,8.871,1.993-7.412,2.315-12.171.808-13.711-1.625a2.992,2.992,0,0,1,1.063-4.081c1.3-.823,2.8-1.216,7.334-2.186Zm21-12.658,6.191,1.391-1.391,6.192-6.191-1.392Z"
          fill="#fff" />
        <path id="Path_744" data-name="Path 744"
          d="M2747.142,1454.362a14.03,14.03,0,0,0,2.979-.95.923.923,0,0,0,.487-1.236c-.558-1.07-2.967-1.777-7.5-2.356,6.224-2.116,11.084-.045,12.231,2.153.837,1.6.089,3.353-1.93,4.407a25.543,25.543,0,0,1-4.885,1.643c7.142.655,11.092,2.143,12.549,4.933,1.333,2.554.453,5.355-2.4,6.842a17.3,17.3,0,0,1-5.155,1.559c-5.288.872-9.829,1.581-14.7,2.535a5.715,5.715,0,0,0-1.43.443.618.618,0,0,0-.315.846c.466.889,2.613,2.111,8.684,3.173-7.007,1.919-12.236-.715-13.506-3.149a2.916,2.916,0,0,1,1.188-3.946c1.247-.651,2.946-1.159,7.515-1.959l10.6-1.833a15.1,15.1,0,0,0,3.964-1.238,1.933,1.933,0,0,0,.879-2.8c-1.24-2.375-7.519-5.141-16.317-2.891l-13.54,3.443-1.161-4.683c4.121-.79,8.212-1.492,12.477-2.585Z"
          fill="#fff" />
        <path id="Path_745" data-name="Path 745"
          d="M2778.518,1512.907c-5.7-.192-8.3-.4-12.622-.267-7.246.241-10.234.579-11.422.823a12.669,12.669,0,0,0-1.359.37c-.445.146-.744.524-.621.906.331,1.02,2.312,2.348,7.422,4.421-6.908.412-11.375-2.714-12.077-4.88-.684-2.1.3-3.408,2.148-4.008,1.465-.475,3.249-1.053,10.326-1.381-12.586-2.109-15.64-4.358-16.653-7.477a4.6,4.6,0,0,1,3.115-5.8c1.529-.5,3.69-.564,7.056-.39l11.179.594a12.336,12.336,0,0,0,3.961-.161,1.019,1.019,0,0,0,.731-1.434c-.331-1.019-2.776-2.478-7.358-4.229,6.927-.348,11.165,2.288,12.095,5.154a3.325,3.325,0,0,1-2.446,4.176c-1.466.476-2.843.572-7.564.344l-11.433-.512a9.417,9.417,0,0,0-3.644.269,1.578,1.578,0,0,0-1.1,2.258c.745,2.293,7.683,6.306,26.825,6.709l3.262.067Z"
          fill="#fff" />
        <path id="Path_746" data-name="Path 746"
          d="M2766.117,1526.035c3.289-3.077,5.479-4.326,7.7-4.825a7.9,7.9,0,0,1,9.557,6.153,9.569,9.569,0,0,1-.425,6.344,13.325,13.325,0,0,1-2.192.632,11.119,11.119,0,0,1-6.008-.157c4.523-3.079,6.16-4.958,5.645-7.245a3.363,3.363,0,0,0-4.279-2.538c-2.026.456-4.018,2.28-7.272,5.209-3.188,2.915-5.129,4.657-8.135,5.334-4.64,1.045-8.366-1.479-9.265-5.464-.589-2.615-.4-6.022.588-7.753a19.018,19.018,0,0,1,2.635-.8,12.606,12.606,0,0,1,5.928.106c-4.387,2.774-7.163,4.773-6.442,7.974.456,2.026,2.108,2.959,4.4,2.443C2760.573,1530.99,2762.545,1529.379,2766.117,1526.035Z"
          fill="#fff" />
        <path id="Path_747"
          stroke-width="3px" data-name="Path 747"
          d="M2271.092,1542.669l.879-4.617.959-4.557,1.056-4.58,1.138-4.54,1.227-4.518,1.306-4.475,1.406-4.5,1.481-4.427,1.564-4.4,1.652-4.372,1.735-4.347,1.821-4.317,1.906-4.282,1.991-4.252,2.055-4.176,2.159-4.181,2.219-4.1,2.3-4.066,2.386-4.03,2.468-3.988,2.522-3.91,2.632-3.9,2.684-3.823,2.762-3.781,2.83-3.714,2.91-3.667,2.971-3.6,3.048-3.557,3.127-3.5,3.17-3.418,3.249-3.371,3.32-3.317,3.363-3.228,3.436-3.177,3.511-3.122,3.544-3.036,3.617-2.981,3.625-2.872,3.679-2.807,3.9-2.854,3.83-2.7,3.865-2.612,3.939-2.553,3.972-2.468,4.025-2.4,4.057-2.309,4.106-2.237,4.18-2.171,4.163-2.063,4.234-2,4.284-1.915,4.3-1.833,4.355-1.748,4.375-1.663,4.4-1.571,4.417-1.488,4.482-1.408,4.5-1.321,4.516-1.23,4.53-1.141,4.546-1.052,4.582-.967,4.592-.877,4.627-.792,4.612-.7,4.643-.61,4.648-.523,4.678-.432,4.658-.341,4.661-.252,4.708-.163,4.66-.073,4.705.016,4.655.1,4.7.2,4.645.284,4.684.375,4.676.467,4.619.548,4.655.646,4.639.732,4.582.815,4.611.908,4.571,1,4.552,1.08,4.555,1.175,4.49,1.25,4.489,1.344,4.465,1.429,4.419,1.508,4.391,1.6,4.364,1.68,4.337,1.766,4.3,1.85,4.273,1.935,4.239,2.019,4.165,2.084,4.148,2.177,4.112,2.258,4.054,2.333,4.016,2.414,3.935,2.47,3.932,2.577,3.853,2.631,3.808,2.712,3.764,2.792,3.719,2.87,3.633,2.92,3.587,3,3.538,3.076,3.469,3.136,3.419,3.212,3.352,3.276,3.265,3.312,3.229,3.405,3.158,3.462,3.087,3.517,3.017,3.568,2.99,3.682,2.951,3.776,2.728,3.629,2.751,3.807,2.668,3.844,2.582,3.875,2.525,3.952,2.453,4,2.364,4.036,2.294,4.089,2.2,4.116,2.13,4.168,2.044,4.2,1.965,4.241,1.9,4.314,1.79,4.294,1.718,4.358,1.633,4.385,1.543,4.4,1.469,4.469,1.371,4.465,1.284,4.483,1.2,4.522,1.118,4.557,1.025,4.574.933,4.564.259,1.356-2.964.557-.255-1.341-.92-4.505-1.013-4.516-1.1-4.5-1.185-4.466-1.268-4.426-1.355-4.409-1.449-4.413-1.525-4.35-1.611-4.328-1.7-4.306-1.771-4.241-1.873-4.258-1.94-4.189-2.02-4.144-2.1-4.117-2.178-4.064-2.264-4.038-2.336-3.984-2.423-3.957-2.493-3.9-2.552-3.829-2.634-3.8-2.717-3.759-2.666-3.55-2.943-3.767-2.955-3.636-2.979-3.526-3.05-3.474-3.119-3.419-3.189-3.361-3.225-3.273-3.31-3.233-3.377-3.174-3.426-3.1-3.494-3.037-3.543-2.961-3.587-2.884-3.671-2.834-3.718-2.758-3.76-2.676-3.8-2.6-3.883-2.544-3.886-2.439-3.966-2.385-4-2.3-4.062-2.233-4.1-2.149-4.112-2.057-4.188-2-4.219-1.91-4.25-1.826-4.282-1.745-4.309-1.658-4.339-1.574-4.364-1.491-4.41-1.413-4.432-1.324-4.437-1.236-4.5-1.16-4.5-1.067-4.515-.983-4.552-.9-4.526-.8-4.584-.725-4.6-.636-4.564-.543-4.615-.459-4.627-.373-4.589-.28-4.641-.2-4.6-.1-4.647-.017-4.6.071-4.651.161-4.6.25-4.6.337-4.619.428-4.592.515-4.586.6-4.554.691-4.569.782-4.535.864-4.524.956-4.489,1.04-4.475,1.126-4.461,1.214-4.442,1.305-4.425,1.391-4.362,1.467-4.342,1.553-4.322,1.642-4.3,1.727-4.251,1.809-4.229,1.892-4.182,1.973-4.113,2.036-4.126,2.144-4.057,2.207-4.005,2.283-3.976,2.365-3.923,2.44-3.89,2.52-3.818,2.583-3.783,2.661-3.863,2.833-3.6,2.744-3.6,2.854-3.574,2.944-3.5,3-3.467,3.086-3.393,3.137-3.321,3.19-3.281,3.277-3.206,3.327-3.131,3.376-3.088,3.462-3.011,3.509-2.934,3.558-2.872,3.625-2.794,3.667-2.729,3.733-2.652,3.776-2.6,3.855-2.492,3.858-2.438,3.94-2.354,3.979-2.275,4.017-2.193,4.053-2.131,4.129-2.029,4.125-1.966,4.2-1.882,4.231-1.8,4.26-1.714,4.292-1.631,4.321-1.546,4.345-1.46,4.372-1.389,4.441-1.291,4.419-1.212,4.464-1.124,4.484-1.043,4.525-.947,4.5-.869,4.558Z"
          fill="#fff" />
      </g>
      <g id="Group_253" data-name="Group 253">
        <path id="Path_748" data-name="Path 748"
          d="M2387.166,1512.591,2348.6,1499.16l17.491,17.1c1.925,1.845,4.338,4.551,6.6,5.979a10.791,10.791,0,0,0,5.988,1.552l-.464.737c-.786,1.247-1.527,2.047-2.24,3.182-.677,1.077-1.044,2.034-1.757,3.167l-.536.851a16.857,16.857,0,0,0-4.159-6.972c-1.55-1.689-3.666-3.733-5.307-5.4l-13.016-13.021c-3.32-3.277-4.564-4.693-6.662-6.014a9.78,9.78,0,0,0-6.181-1.12c2.133-3.012,2.7-3.919,4.774-7.206l35.626,12.058-20.354-36.321c1.928-3.061,3.655-5.93,4.969-8.269a14.6,14.6,0,0,0,3.96,7.163c1.182,1.14,2.725,2.586,4.17,3.811l15.281,12.945a74.544,74.544,0,0,0,7.344,5.808,9.793,9.793,0,0,0,5.535,1.269l-.571.907c-.964,1.53-1.669,2.274-2.419,3.465-.785,1.247-1.115,2.147-2.149,3.791l-.465.736c-.516-2.7-3.048-5.717-5.824-8.1-1.274-1.119-2.7-2.252-4.2-3.514l-19.671-16.657Z"
          fill="#fff" />
        <path id="Path_749" data-name="Path 749"
          d="M2391.244,1466.282c-.262-4.7.4-8.7,2.606-10.76a5.372,5.372,0,0,1,4.883-1.439l2.468-4.132c1.661,3.945,3.242,7.508,5.094,11.458,1.633,3.423,3.456,6.851,4.476,8.829a14.373,14.373,0,0,0,1.93,3.055c.32.342.6.352.9.078.833-.777,1.536-3.263.636-10.023,3.678,5.91,3.308,12.389.908,14.626-1.225,1.143-2.743,1.183-4.113-.286a29.811,29.811,0,0,1-3.893-6.534c1.959,8.977,1.378,13.364-.729,15.328-2.449,2.283-5.6,1.651-8.114-1.044C2394.55,1481.421,2391.618,1473.167,2391.244,1466.282Zm13.222,16.151c1.666-1.553,2.418-8.113-1.1-17.195a51.493,51.493,0,0,0-2.864-6.117c-2-.971-3.848-1.083-4.976-.033-1.273,1.187-1.969,3.484-1.574,7.052a28.023,28.023,0,0,0,6.613,15.444C2402.023,1483.152,2403.437,1483.392,2404.466,1482.433Z"
          fill="#fff" />
        <path id="Path_750" data-name="Path 750"
          d="M2400.821,1430.528l1.067-6.255,6.256,1.066-1.067,6.256Zm13.736,20.31a14.317,14.317,0,0,0-1.666-4.32.513.513,0,0,0-.786-.181c-1.038.734-1.508,3.777-2.015,8.157-1.894-5.8-.836-11.719,1.349-13.267,1.148-.813,2.922-.511,4.084,1.128,1.239,1.749,2.069,4.772,2.836,7.592l3.574,12.573a11.7,11.7,0,0,0,.916,2.8.67.67,0,0,0,.933.161c.984-.7,1.562-3.242,1.528-8.965,2.7,7.283,1.443,12.112-.908,13.777a2.993,2.993,0,0,1-4.131-.848c-.89-1.256-1.359-2.73-2.564-7.211Z"
          fill="#fff" />
        <path id="Path_751" data-name="Path 751"
          d="M2433.725,1455.938a8.409,8.409,0,0,0,.529,1.319.67.67,0,0,0,1.007.27c.927-.537,2.227-3.375,3.418-10.019,1.6,8.126-.377,13.677-3.1,15.251a2.814,2.814,0,0,1-4.052-.988c-.87-1.506-1.341-2.859-2.658-7.281l-8.218-27.352a35.642,35.642,0,0,0-2.513-6.36c-.737-1.277-1.879-2.318-4.35-2.979l7.879-4.706a119.692,119.692,0,0,0,2.953,11.675Z"
          fill="#fff" />
        <path id="Path_752" data-name="Path 752"
          d="M2472.974,1415.825c-.316,5.692-.583,8.289-.541,12.613.083,7.25.355,10.246.574,11.438a12.413,12.413,0,0,0,.341,1.366c.134.448.507.756.892.642,1.027-.31,2.4-2.261,4.58-7.324.263,6.915-2.96,11.312-5.14,11.968-2.117.637-3.4-.376-3.96-2.236-.445-1.475-.985-3.271-1.157-10.352-2.383,12.536-4.7,15.542-7.838,16.487a4.6,4.6,0,0,1-5.733-3.241c-.463-1.54-.484-3.7-.237-7.064l.839-11.163a12.391,12.391,0,0,0-.074-3.964,1.021,1.021,0,0,0-1.418-.763c-1.028.309-2.539,2.722-4.389,7.266-.2-6.935,2.531-11.113,5.417-11.982a3.325,3.325,0,0,1,4.12,2.537c.444,1.475.51,2.854.18,7.57l-.76,11.42a9.429,9.429,0,0,0,.189,3.649,1.578,1.578,0,0,0,2.233,1.148c2.308-.695,6.473-7.544,7.292-26.674l.137-3.26Z"
          fill="#fff" />
        <path id="Path_753" data-name="Path 753"
          d="M2486.124,1429.043c-2.8-3.526-3.87-5.811-4.189-8.064a7.894,7.894,0,0,1,6.9-9.031,9.56,9.56,0,0,1,6.288.933,13.272,13.272,0,0,1,.453,2.236,11.1,11.1,0,0,1-.64,5.977c-2.7-4.758-4.446-6.54-6.767-6.21a3.36,3.36,0,0,0-2.873,4.06c.292,2.056,1.947,4.189,4.606,7.667,2.65,3.412,4.23,5.489,4.663,8.538.668,4.71-2.148,8.22-6.193,8.794-2.652.378-6.034-.089-7.681-1.209a18.993,18.993,0,0,1-.585-2.689,12.612,12.612,0,0,1,.583-5.9c2.412,4.595,4.18,7.524,7.43,7.063,2.055-.293,3.117-1.864,2.788-4.185C2490.618,1434.967,2489.171,1432.872,2486.124,1429.043Z"
          fill="#fff" />
        <path id="Path_754" data-name="Path 754"
          d="M2520.139,1412.875c.752-2.506,1.209-4.559,1.724-6.474l4.783-.322-2.208,6.714,5.9.014-1.547,3.464-5.416-.32-5.831,18.04a13.654,13.654,0,0,0-.626,2.648.878.878,0,0,0,.881.991c1.4.083,3.01-.964,8.093-6.365-2.575,7.228-6.677,10.81-9.955,10.616a3.36,3.36,0,0,1-3.393-3.892,25.945,25.945,0,0,1,1.587-6.414l5.031-15.873-4.145-.245.956-2.561Z"
          fill="#fff" />
        <path id="Path_755" data-name="Path 755"
          d="M2525.516,1440.62c1.98-3.7,4-7.252,5.836-11.252l10.714-23.178a32.544,32.544,0,0,0,2.079-5.865c.465-2.3-.187-3.795-1.166-5.7l8.952,1.68c-2.415,4.157-3.064,6.007-5.323,10.742l-6.776,14.2c4.557-4.609,8.043-6.637,11.39-5.957,2.822.573,4.444,3.02,3.805,6.171a17.29,17.29,0,0,1-2.037,4.984c-2.652,4.656-4.883,8.576-7.207,12.956a7.221,7.221,0,0,0-.634,1.444.616.616,0,0,0,.458.776c.985.2,3.285-.7,7.932-4.746-2.921,6.65-8.26,9.053-10.95,8.507a2.917,2.917,0,0,1-2.316-3.408c.28-1.379.955-3.019,3.211-7.071l5.254-9.388a15.046,15.046,0,0,0,1.533-3.858,1.935,1.935,0,0,0-1.622-2.448c-2.953-.6-9.121,2.524-12.926,10.84l-5.774,12.632Z"
          fill="#fff" />
        <path id="Path_756" data-name="Path 756"
          d="M2565.964,1426.506c.034-1.567-.257-2.111-.631-2.257-1.062-.413-2.7.672-7.779,5.956,3.514-8.478,8.131-10.922,10.439-10.023,1.686.656,2.486,2.476,2.35,6.519a66.173,66.173,0,0,1-3.98,21.3,25.253,25.253,0,0,1-1.159,2.424c7.687-7.932,11.089-13.722,13.689-20.4a26.052,26.052,0,0,0,1.325-4.513l3.862.784a20.722,20.722,0,0,1-1,3.492c-2.794,7.177-7.557,13.875-14.989,20.971a44.651,44.651,0,0,1-16.407,10.215c-5.666,1.818-10.084,1.537-13.58.176a7.857,7.857,0,0,1-3.657-2.788,15.345,15.345,0,0,1,3.465-3.179,11.822,11.822,0,0,0,4.735,3.711c6.741,2.624,15.82-2.611,19.682-12.534A61.985,61.985,0,0,0,2565.964,1426.506Z"
          fill="#fff" />
        <path id="Path_757" data-name="Path 757"
          d="M2597.57,1448.531a4.8,4.8,0,0,1,.7-5.237c3.059-3.9,8.472-4.506,13.584-.5,1.95,1.529,4.935,4.127,6.6,5.69-12.768,4.881-17.382,6.966-20.481,10.918-1.778,2.267-1.67,4.735.068,6.1,1.686,1.323,4.406,1.328,7.772-.032a41.335,41.335,0,0,1,9.9-9.258l2.008,3.19a38.2,38.2,0,0,1-10.136,7.714c-1.311,2.973-.85,5.208.889,6.57,3.057,2.4,8.254.005,12.3-5.159,2.894-3.689,4.319-7.677,2.841-12.412l4.883-.256c.611,2.692.648,6.552-4.642,13.3-5.416,6.905-13.853,11.693-18.649,7.931-2.74-2.15-2.6-5.362-1.027-8.893-3.737,1.835-6.983,2.61-9.987.254-3.426-2.687-3.779-6.8-.679-10.748,3.308-4.216,8.914-6.373,18.565-9.016a58.4,58.4,0,0,0-5.267-4.9c-2.687-2.108-3.8-1.45-4.627-.4a5.121,5.121,0,0,0-.629,4.275Z"
          fill="#fff" />
        <path id="Path_758" data-name="Path 758"
          d="M2633.121,1474.492a14.209,14.209,0,0,0,4.088-2.173.514.514,0,0,0,.086-.8c-.856-.942-3.933-1.042-8.344-1.017,5.53-2.579,11.535-2.244,13.337-.26.945,1.041.859,2.839-.628,4.19-1.587,1.44-4.488,2.63-7.2,3.731l-12.051,5.063a11.769,11.769,0,0,0-2.667,1.248.671.671,0,0,0-.046.946c.811.893,3.406,1.158,9.083.437-6.9,3.555-11.85,2.891-13.787.759a3,3,0,0,1,.344-4.2c1.14-1.035,2.547-1.678,6.85-3.415Zm18.508-16.085,6.34.305-.306,6.34-6.339-.305Z"
          fill="#fff" />
        <path id="Path_759" data-name="Path 759"
          d="M2637.387,1490.4c1.787-4.133,3.3-6.153,5.134-7.5a7.9,7.9,0,0,1,11.219,1.825,9.569,9.569,0,0,1,2.145,5.985,13.442,13.442,0,0,1-1.758,1.454,11.109,11.109,0,0,1-5.571,2.256c2.918-4.63,3.667-7.006,2.282-8.9a3.363,3.363,0,0,0-4.938-.617c-1.674,1.229-2.773,3.694-4.585,7.68-1.758,3.946-2.842,6.319-5.328,8.14-3.835,2.812-8.26,1.986-10.676-1.31-1.583-2.159-2.767-5.361-2.558-7.341a19.085,19.085,0,0,1,2.1-1.787,12.636,12.636,0,0,1,5.477-2.271c-2.914,4.3-4.661,7.238-2.721,9.884,1.228,1.675,3.115,1.87,5.005.484C2634.285,1497.162,2635.449,1494.9,2637.387,1490.4Z"
          fill="#fff" />
        <path id="Path_760" data-name="Path 760"
          d="M2632.59,1505.66c4.116-.806,8.146-1.49,12.406-2.6l24.729-6.364a32.6,32.6,0,0,0,5.857-2.1c2.074-1.092,2.822-2.545,3.68-4.511l4.361,8c-4.746.76-6.59,1.428-11.685,2.674l-15.289,3.737c6.454.612,10.228,2.03,11.82,5.053,1.342,2.547.472,5.35-2.372,6.85a17.329,17.329,0,0,1-5.149,1.576c-5.284.891-9.731,1.644-14.594,2.615a7.3,7.3,0,0,0-1.518.421.617.617,0,0,0-.312.845c.468.889,2.621,2.1,8.694,3.142-7,1.944-12.236-.669-13.516-3.1a2.917,2.917,0,0,1,1.175-3.949c1.244-.656,2.941-1.172,7.507-1.986l10.595-1.871a15.118,15.118,0,0,0,3.958-1.252,1.935,1.935,0,0,0,.869-2.805c-1.405-2.667-7.725-5.469-16.573-3.154L2633.8,1510.4Z"
          fill="#fff" />
        <path id="Path_761"
          stroke-width="3px" data-name="Path 761"
          d="M2381.3,1533.007l1.764-4.1,1.9-4.061,2.018-3.976,2.156-3.925,2.263-3.833,2.4-3.779,2.517-3.7,2.635-3.621,2.748-3.534,2.846-3.428,2.973-3.357,3.061-3.244,3.186-3.169,3.272-3.046,3.351-2.929,3.45-2.826,3.547-2.72,3.638-2.609,3.708-2.483,3.8-2.367,3.861-2.237,3.921-2.108,4-1.986,4.057-1.856,4.109-1.72,4.183-1.6,4.229-1.463,4.272-1.32,4.313-1.187,4.324-1.041,4.165-.872,4.627-.816,4.453-.641,4.442-.492,4.455-.35,4.466-.208,4.476-.065,4.45.08,4.479.223,4.452.368,4.422.508,4.414.651,4.4.8,4.362.932,4.347,1.079,4.272,1.209,4.275,1.354,4.221,1.494,4.165,1.621,4.107,1.754,4.044,1.882,4,2.018,3.931,2.145,3.842,2.255,3.785,2.388,3.708,2.509,3.607,2.609,3.542,2.741,3.454,2.85,3.346,2.944,3.271,3.074,3.156,3.157,3.058,3.262,2.954,3.365,2.834,3.441,2.728,3.538,2.619,3.631,2.492,3.7,2.363,3.767,2.249,3.855,2.132,3.937,2,4,1.865,4.05,1.071,2.494-2.782,1.161-1.048-2.438-1.823-3.962-1.955-3.91-2.084-3.852-2.2-3.771-2.312-3.684-2.438-3.622-2.563-3.552-2.667-3.463-2.774-3.367-2.891-3.29-2.992-3.193-3.088-3.09-3.2-3-3.273-2.881-3.38-2.793-3.467-2.679-3.529-2.555-3.629-2.454-3.705-2.337-3.757-2.208-3.848-2.1-3.917-1.975-3.957-1.843-4.017-1.714-4.075-1.588-4.131-1.461-4.183-1.327-4.18-1.179-4.252-1.057-4.267-.914-4.307-.78-4.317-.636-4.325-.5-4.355-.36-4.383-.22-4.354-.076-4.38.064-4.368.2-4.36.343-4.346.48-4.359.626-4.577.809-4.029.843-4.231,1.021-4.22,1.158-4.181,1.3-4.138,1.427-4.091,1.564-4.019,1.682-3.971,1.814-3.914,1.944-3.838,2.06-3.776,2.193-3.717,2.314-3.627,2.43-3.56,2.554-3.468,2.659-3.377,2.763-3.28,2.867-3.2,2.981-3.118,3.1-3,3.173-2.909,3.285-2.784,3.355-2.692,3.458-2.576,3.541-2.464,3.622-2.346,3.7-2.217,3.75-2.11,3.841-1.973,3.89-1.862,3.975-1.727,4.012Z"
          fill="#fff" />
      </g>
    </g>
  </g>
</svg>