<svg xmlns="http://www.w3.org/2000/svg" xmlns:xlink="http://www.w3.org/1999/xlink" width="697" height="697" viewBox="0 0 697 697">
  <defs>
    <style>
      .cls-1 {
        fill: url(#Naamloos_verloop_11);
      }

      .cls-2 {
        font-size: 56.17px;
        font-family: Garamond;
      }

      .cls-2, .cls-3 {
        fill: #fff;
      }

      .cls-3 {
        font-size: 60px;
        font-family: CormorantGaramond-Light, Cormorant Garamond;
        font-weight: 300;
      }

      .cls-4 {
        fill: none;
        stroke: #fff;
        stroke-miterlimit: 10;
        stroke-width: 3px;
      }
    </style>
    <radialGradient id="Naamloos_verloop_11" data-name="Naamloos verloop 11" cx="347.02" cy="349.41" r="265.38" gradientTransform="translate(-71.42 -73.1) scale(1.21)" gradientUnits="userSpaceOnUse">
      <stop offset="0.49" stop-color="#f0f" stop-opacity="0.97"/>
      <stop offset="0.55" stop-color="#fe01fa" stop-opacity="0.97"/>
      <stop offset="0.62" stop-color="#fd02ec" stop-opacity="0.97"/>
      <stop offset="0.7" stop-color="#fa06d4" stop-opacity="0.98"/>
      <stop offset="0.78" stop-color="#f70ab2" stop-opacity="0.98"/>
      <stop offset="0.86" stop-color="#f20f87" stop-opacity="0.99"/>
      <stop offset="0.95" stop-color="#ec1653" stop-opacity="0.99"/>
      <stop offset="1" stop-color="#e81b2d"/>
    </radialGradient>
  </defs>
  <g id="Laag_2" data-name="Laag 2">
    <g id="Laag_1-2" data-name="Laag 1">
      <g>
        <circle class="cls-1" cx="348.5" cy="348.5" r="348.5"/>
        <text class="cls-2" transform="matrix(-0.11, -0.95, 0.99, -0.12, 87, 400.58)">Д</text>
        <text class="cls-2" transform="translate(83.21 366.47) rotate(-91.24) scale(0.96 1)">е</text>
        <text class="cls-2" transform="translate(82.61 344.83) rotate(-86.47) scale(0.96 1)">р</text>
        <text class="cls-2" transform="translate(84.35 318.19) rotate(-81.8) scale(0.96 1)">з</text>
        <text class="cls-2" transform="translate(87.18 298.31) rotate(-77.62) scale(0.96 1)">а</text>
        <text class="cls-2" transform="translate(91.5 277.7) rotate(-72.58) scale(0.96 1)">й</text>
        <text class="cls-2" transform="matrix(0.35, -0.89, 0.93, 0.37, 100.3, 250.56)"> </text>
        <text class="cls-2" transform="translate(104.89 238.54) rotate(-64.7) scale(0.96 1)">в</text>
        <text class="cls-2" transform="translate(114.39 218.39) rotate(-60.15) scale(0.96 1)">е</text>
        <text class="cls-2" transform="matrix(0.55, -0.79, 0.82, 0.57, 125.06, 199.56)">л</text>
        <text class="cls-2" transform="matrix(0.62, -0.73, 0.76, 0.65, 139.58, 178.45)">и</text>
        <text class="cls-2" transform="translate(158.04 156.93) rotate(-44.18) scale(0.96 1)">к</text>
        <text class="cls-2" transform="translate(174.03 141.14) rotate(-38.72) scale(0.96 1)">и</text>
        <text class="cls-2" transform="matrix(0.8, -0.53, 0.55, 0.84, 196.21, 123.51)">е</text>
        <text class="cls-2" transform="translate(214.51 111.65) rotate(-29.45) scale(0.96 1)"> </text>
        <text class="cls-2" transform="matrix(0.87, -0.41, 0.43, 0.9, 225.53, 105.16)">д</text>
        <text class="cls-2" transform="translate(247.58 94.77) rotate(-20.09) scale(0.96 1)">е</text>
        <text class="cls-2" transform="translate(267.8 87.23) rotate(-14.72) scale(0.96 1)">л</text>
        <text class="cls-2" transform="translate(292.62 80.78) rotate(-9.39) scale(0.96 1)">а</text>
        <text class="cls-2" transform="translate(313.57 77.44) rotate(-5.51) scale(0.96 1)"> </text>
        <text class="cls-2" transform="matrix(0.96, -0.02, 0.02, 1, 326.29, 75.97)">д</text>
        <text class="cls-2" transform="translate(350.69 75.46) rotate(3.82) scale(0.96 1)">а</text>
        <text class="cls-2" transform="translate(371.86 76.99) rotate(7.69) scale(0.96 1)"> </text>
        <text class="cls-2" transform="translate(384.51 78.35) rotate(12.38) scale(0.96 1)">п</text>
        <text class="cls-2" transform="translate(412.1 84.4) rotate(18.62) scale(0.96 1)">р</text>
        <text class="cls-2" transform="translate(437.21 92.76) rotate(24.8) scale(0.96 1)">и</text>
        <text class="cls-2" transform="translate(462.87 104.75) rotate(30.37) scale(0.96 1)">с</text>
        <text class="cls-2" transform="translate(481.56 115.53) rotate(35.66) scale(0.96 1)">о</text>
        <text class="cls-2" transform="translate(503.14 131.11) rotate(40.89) scale(0.96 1)">е</text>
        <text class="cls-2" transform="matrix(0.67, 0.69, -0.72, 0.7, 519.56, 145.21)">д</text>
        <text class="cls-2" transform="matrix(0.6, 0.75, -0.78, 0.62, 536.63, 162.57)">и</text>
        <text class="cls-2" transform="translate(554.3 184.63) rotate(57.29) scale(0.96 1)">н</text>
        <text class="cls-2" transform="translate(569.55 208.6) rotate(62.45) scale(0.96 1)">я</text>
        <text class="cls-2" transform="translate(579.58 227.41) rotate(67.58) scale(0.96 1)">й</text>
        <text class="cls-2" transform="matrix(0.28, 0.91, -0.95, 0.3, 590.3, 253.7)">с</text>
        <text class="cls-2" transform="translate(596.77 274.42) rotate(77.11) scale(0.96 1)">я</text>
        <text class="cls-2" transform="matrix(0.16, 0.94, -0.99, 0.16, 601.47, 295.49)"> </text>
        <text class="cls-2" transform="matrix(0.1, 0.95, -0.99, 0.1, 603.75, 308.17)">к</text>
        <text class="cls-2" transform="matrix(0.04, 0.96, -1, 0.04, 605.91, 330.82)"> </text>
        <text class="cls-2" transform="translate(606.72 343.62) rotate(91.82) scale(0.96 1)">н</text>
        <text class="cls-2" transform="matrix(-0.11, 0.95, -0.99, -0.12, 605.7, 372.02)">а</text>
        <text class="cls-2" transform="translate(603.48 392.94) rotate(101.99) scale(0.96 1)">м</text>
        <g>
          <text class="cls-3" transform="matrix(0.35, -0.7, 0.89, 0.45, 214.03, 289.13)">И</text>
          <text class="cls-3" transform="matrix(0.44, -0.64, 0.83, 0.56, 230.21, 258.37)">з</text>
          <text class="cls-3" transform="translate(239.09 245.01) rotate(-50.07) scale(0.78 1)">ъ</text>
          <text class="cls-3" transform="translate(251.98 229.56) rotate(-43.5) scale(0.78 1)">я</text>
          <text class="cls-3" transform="matrix(0.63, -0.46, 0.6, 0.8, 265.24, 216.83)">в</text>
          <text class="cls-3" transform="translate(280.24 205.4) rotate(-28.1) scale(0.78 1)">и</text>
          <text class="cls-3" transform="translate(300.38 195) rotate(-20.94) scale(0.78 1)"> </text>
          <text class="cls-3" transform="matrix(0.76, -0.16, 0.21, 0.98, 308.95, 190.79)">ж</text>
          <text class="cls-3" transform="translate(336.01 185.29) rotate(-1.53) scale(0.78 1)">е</text>
          <text class="cls-3" transform="translate(353.45 184.62) rotate(7.38) scale(0.78 1)">л</text>
          <text class="cls-3" transform="translate(373.08 187.12) rotate(16.37) scale(0.78 1)">а</text>
          <text class="cls-3" transform="matrix(0.7, 0.34, -0.43, 0.9, 390.54, 191.96)">н</text>
          <text class="cls-3" transform="translate(410.75 201.52) rotate(34.86) scale(0.78 1)">и</text>
          <text class="cls-3" transform="translate(429.21 214.49) rotate(42.48) scale(0.78 1)">е</text>
          <text class="cls-3" transform="translate(442.46 226.82) rotate(47.41) scale(0.78 1)"> </text>
          <text class="cls-3" transform="translate(449.47 234.17) rotate(52.06) scale(0.78 1)">с</text>
          <text class="cls-3" transform="translate(460.65 248.4) rotate(57.79) scale(0.78 1)">в</text>
          <text class="cls-3" transform="translate(470.99 264.65) rotate(63.58) scale(0.78 1)">о</text>
          <text class="cls-3" transform="matrix(0.28, 0.73, -0.93, 0.36, 480.49, 283.86)">е</text>
        </g>
      </g>
      <path class="cls-4" d="M587,421a283.56,283.56,0,0,0,4-122c-11.25-60.1-39-99.94-47-111-13-17.77-49.21-66.13-118-91-17.95-6.49-80-26.51-154-4-94.87,28.85-139.31,107.13-153,135C82.05,303.21,91.69,373.83,96.5,399.5"/>
      <path class="cls-4" d="M224.5,285.5a140.62,140.62,0,0,1,21-40c6.92-9.18,37.45-49.63,90-54,39.79-3.31,69.27,16,80,23,4.32,2.82,23.95,16,41,41a157.43,157.43,0,0,1,22,48"/>
    </g>
  </g>
</svg>
